<?xml version="1.0" encoding="utf-8"?>
<!-- Generator: Adobe Illustrator 20.1.0, SVG Export Plug-In . SVG Version: 6.00 Build 0)  -->
<svg version="1.1" id="Layer_1" xmlns="http://www.w3.org/2000/svg" xmlns:xlink="http://www.w3.org/1999/xlink" x="0px" y="0px"
	 viewBox="0 0 400 400" style="enable-background:new 0 0 400 400;" xml:space="preserve">
<style type="text/css">
	.st0{fill:#7EACBF;}
	.st1{fill:none;stroke:#FFFFFF;stroke-width:0;stroke-linecap:square;stroke-miterlimit:10;}
	.st2{fill:#2B0000;}
	.st3{fill:none;stroke:#000000;stroke-width:10.5;stroke-linecap:round;}
</style>
<g>
	<path class="st0" d="M331.7,231.6c0,83.3-60.5,150.8-135.2,150.8S61.2,314.9,61.2,231.6c0-83.2,60.5-150.7,135.2-150.7
		S331.7,148.4,331.7,231.6L331.7,231.6z"/>
	<path class="st1" d="M331.7,231.6c0,83.3-60.5,150.8-135.2,150.8S61.2,314.9,61.2,231.6c0-83.2,60.5-150.7,135.2-150.7
		S331.7,148.4,331.7,231.6L331.7,231.6z"/>
	<polygon class="st2" points="194.1,18.2 359,73 204.8,131.5 39.9,76.7 	"/>
	<polygon class="st1" points="194.1,18.2 359,73 204.8,131.5 39.9,76.7 	"/>
	<path class="st2" d="M161.6,129.7l93.4-30c3.7-1.1,14.4,3.5,24.1,10.4s14.5,13.5,10.8,14.7l-93.4,29.9c-3.7,1.2-14.4-3.5-24.1-10.4
		C162.7,137.5,157.9,130.9,161.6,129.7L161.6,129.7z"/>
	<path class="st1" d="M161.6,129.7l93.4-30c3.7-1.1,14.4,3.5,24.1,10.4s14.5,13.5,10.8,14.7l-93.4,29.9c-3.7,1.2-14.4-3.5-24.1-10.4
		C162.7,137.5,157.9,130.9,161.6,129.7L161.6,129.7z"/>
	<path class="st2" d="M125.2,101.2l96,26.9c3.8,1.1,0.7,7.9-7,15.3l0,0c-7.7,7.4-16.9,12.5-20.6,11.5l-96-26.9
		c-3.8-1.1-0.7-7.9,7-15.4l0,0C112.3,105.2,121.5,100.1,125.2,101.2L125.2,101.2z"/>
	<path class="st1" d="M125.2,101.2l96,26.9c3.8,1.1,0.7,7.9-7,15.3l0,0c-7.7,7.4-16.9,12.5-20.6,11.5l-96-26.9
		c-3.8-1.1-0.7-7.9,7-15.4l0,0C112.3,105.2,121.5,100.1,125.2,101.2L125.2,101.2z"/>
	<rect x="322.2" y="67.6" class="st2" width="7.6" height="61.7"/>
	<rect x="322.2" y="67.6" class="st1" width="7.6" height="61.7"/>
	<path class="st2" d="M334.6,127.7c0,4-3.8,7.3-8.6,7.3s-8.6-3.2-8.6-7.3c0-4,3.8-7.2,8.6-7.2S334.6,123.7,334.6,127.7L334.6,127.7z
		"/>
	<path class="st1" d="M334.6,127.7c0,4-3.8,7.3-8.6,7.3s-8.6-3.2-8.6-7.3c0-4,3.8-7.2,8.6-7.2S334.6,123.7,334.6,127.7L334.6,127.7z
		"/>
	<polygon class="st2" points="337.2,148.3 326.4,148.3 315.6,148.3 320.9,138.2 326.3,128.1 331.7,138.2 	"/>
	<polygon class="st1" points="337.2,148.3 326.4,148.3 315.6,148.3 320.9,138.2 326.3,128.1 331.7,138.2 	"/>
	<path d="M89.2,253.9c6.6,13,42.5,25.9,56.8,25c0,0,43.7-7.6,50.7-7.3c1.3-0.1,21.2,1.8,53.5,7c0,0,24.5-2.1,48.8-20.8
		c0,0,4.8-4,5.1-12.4c0,0-5.9-56.9-8.9-62.5c0,0-4.8-11.5-19.8-15.1c-15.1-6.8-137.3-14-169.3,5c0,0-9.7,3.6-12.4,19.6l-6.3,51.1
		C87.1,246.9,87.3,250.4,89.2,253.9L89.2,253.9z"/>
	<path d="M85.1,185.3c0,0-8.7,54.1-7.5,62.6c0,0-6.7,1.6-8.5-6.1l-0.7-49.4c0.1,0.2-0.5-6.2,6.1-6.8L85.1,185.3z"/>
	<path d="M305.7,182.7c0,0,9.4,53.9,8.3,62.4c0,0,6.5,1.4,8.2-6.2l-0.2-49.4c0,0.2,0.4-6.2-6.1-6.7L305.7,182.7z"/>
	<path class="st0" d="M150.7,231.1c0,1-0.2,2.8-0.5,5.4c-0.3,2.8-0.7,4.5-0.9,5c-0.2,0.4-0.5,0.7-1,0.7c-0.2,0-0.5,0-0.9-0.1
		c-1.4-0.2-5.5-0.3-12.4-0.3c-1.5,0-3.7,0-6.7-0.1c-2.9,0-5.2,0-6.7,0c-0.6,0-1-0.4-1-1c0-2.5,0.1-6.4,0.4-11.5
		c0.2-5.1,0.4-8.9,0.4-11.5c0-2.6-0.1-7.4-0.3-14.5c-0.1-1.9-0.2-4.6-0.4-8.2v-0.5c-0.1-0.5,0.2-0.8,0.7-0.8c1.4,0,3.6,0.1,6.5,0.1
		c2.9,0.1,5,0.2,6.5,0.2c1.4,0,3.5-0.1,6.4-0.2c2.9-0.1,5-0.1,6.4-0.1c1,0,1.6,0.4,1.7,1.3c0.1,0.5,0.2,2.1,0.4,4.8
		c0.2,2.6,0.4,4.2,0.4,4.8c0,0.5-0.2,0.7-0.6,0.7c-0.1,0-0.3-0.1-0.6-0.1c-5.2-0.5-9.8-0.7-13.9-0.7c-1,0-1.7,0.2-1.9,0.8
		c-0.1,0.2-0.2,1.1-0.2,2.6c0,1.6,0.2,2.6,0.6,3.1c0.3,0.4,1,0.6,1.9,0.6c0.2,0,0.6,0,1.1,0c0.6-0.1,1-0.1,1.4-0.1
		c2.5,0,4.9-0.1,7.4-0.2l1.6-0.2c0.7-0.1,1.1-0.1,1.6-0.1c0.5,0,0.7,0.2,0.7,0.8c0-0.5-0.2,1.3-0.5,5.2c-0.2,1.9-0.2,3.7-0.2,5.5
		c0,0.5-0.3,0.7-0.8,0.7l-2.6-0.4c-1.1-0.1-3.6-0.2-7.6-0.2h-3.1c-0.8,0-1.3,0.2-1.4,0.7c-0.1,0.1-0.1,0.8-0.1,2.1
		c0,1.7,0.1,2.8,0.3,3.4c0.3,0.8,1.6,1.4,3.7,1.5h4.3c1,0,2.5-0.1,4.6-0.3c2-0.2,3.5-0.3,4.6-0.3
		C150.5,229.9,150.7,230.2,150.7,231.1L150.7,231.1z"/>
	<path class="st0" d="M177.8,218.8c0,0-0.1,0-0.2-0.1c-1.1-0.2-5.2-0.4-12.2-0.4c-1.2,0-3,0.1-5.4,0.2c-2.4,0.1-4.2,0.1-5.3,0.1
		c-0.4,0-0.5-0.4-0.5-1.2c0-0.2,0.1-1.3,0.2-3.4c0-1.1,0.1-2.4,0.1-3.7c0.1-0.4,0.3-0.5,0.7-0.5c1.3,0,3.1,0.1,5.6,0.2
		c2.5,0.1,4.4,0.2,5.7,0.2s3.2-0.1,5.8-0.1c2.6-0.1,4.6-0.1,5.9-0.1c0.3,0,0.5,0.2,0.5,0.7c0,3.2-0.1,5.8-0.4,7.6
		C178.2,218.6,178,218.8,177.8,218.8L177.8,218.8z M177.9,231.6l-0.3-0.1c-4-0.2-8.1-0.4-12.2-0.4c-1.2,0-3,0.1-5.4,0.2
		c-2.4,0.1-4.2,0.2-5.3,0.2c-0.4,0-0.5-0.4-0.5-1.1c0-0.4,0.1-1,0.1-1.7c0.1-0.8,0.1-1.4,0.2-1.7c-0.1-1.1,0-2.3,0.1-3.7
		c0.1-0.4,0.3-0.6,0.7-0.6c1.3,0,3.1,0.1,5.6,0.2c2.5,0.1,4.4,0.2,5.7,0.2c1.3,0,3.2,0,5.9-0.1c2.6-0.1,4.6-0.1,5.9-0.1
		c0.3,0,0.5,0.2,0.5,0.7c0,0.2-0.1,1.6-0.2,3.9c-0.2,2.4-0.2,3.6-0.2,3.7C178.2,231.4,178,231.6,177.9,231.6L177.9,231.6z"/>
	<path class="st0" d="M229.6,240.4c0,0.8-0.3,1.2-0.9,1.3c-0.5,0.1-2,0.1-4.3,0.1c-2.4,0-3.8-0.1-4.4-0.2c-0.6-0.2-0.9-0.7-0.9-1.7
		c0-1.1,0.1-2.6,0.1-4.7c0.1-2.1,0.1-3.7,0.1-4.7c0-4,0-6.8-0.1-8.5c-0.1-2.7-1.2-4-3.2-4c-1,0-1.9,0.4-2.8,1.3
		c-0.9,0.9-1.4,1.9-1.5,3c-0.1,1-0.1,3.7-0.1,8.3c0,1.1,0.1,2.7,0.1,4.9c0.1,2.2,0.1,3.8,0.1,4.9c0,0.7-0.2,1.1-0.8,1.1H202
		c-0.5,0-0.8-0.5-0.8-1.4c0-1.1,0-2.6,0.1-4.8c0.1-2.1,0.1-3.7,0.1-4.8c0-0.8-0.1-2.2-0.1-3.8c-0.1-1.7-0.1-3-0.1-3.8
		c0-3.2-1.1-4.9-3.2-4.9c-0.8,0-1.8,0.4-2.8,1.1c-1.1,0.8-1.6,1.7-1.6,2.6c0,2.1,0,5.2,0,9.3c0,4.1,0.1,7.1,0.1,9.2
		c0,0.5-0.1,0.9-0.2,1c-0.1,0.1-0.4,0.2-0.9,0.3c-0.9,0.1-2.3,0.1-4.1,0.1c-1.2,0-2.6-0.1-4.1-0.2c-0.5-0.1-0.8-0.2-0.9-0.2
		c-0.1-0.1-0.1-0.5-0.1-1c0-1.9,0-4.6,0-8.2c0-3.7,0.1-6.4,0.1-8.2c0-3.7-0.2-7.9-0.7-12.6c-0.1-0.2-0.1-0.5-0.1-0.6
		c0-0.4,0.1-0.7,0.4-0.8c0.4-0.2,1.2-0.4,2.4-0.5c1.4-0.1,2.3-0.2,2.6-0.3c0.2-0.1,1-0.3,2.3-0.7c1-0.3,1.7-0.5,2.3-0.5
		c0.4,0,0.5,0.8,0.5,2.4c0.1,1.6,0.1,2.3,0.2,2.3c0.2-0.1,0.4-0.2,0.7-0.5c1.8-1.6,3.1-2.6,4.1-3.2c1.5-0.8,3.1-1.3,4.9-1.3
		c1.8,0,3.4,0.5,4.8,1.4c1.6,1,2.6,2.5,3.1,4.4c1-1.6,2.4-3,4.2-4.1c1.8-1.1,3.6-1.7,5.3-1.7c2.6,0,4.7,0.7,6.2,2
		c1.9,1.6,2.8,3.8,2.8,6.7c0,1.2-0.1,3.1-0.1,5.5c-0.1,2.4-0.1,4.2-0.1,5.4c0,1.4,0.1,3.6,0.1,6.5
		C229.5,236.8,229.6,239,229.6,240.4L229.6,240.4z"/>
	<path class="st0" d="M254.5,219.2c0,0-0.6-0.2-1.8-0.5c-1.1-0.4-2-0.5-2.8-0.5c-1.7,0-3.1,0.6-4.1,1.8c-1,1.3-1.6,2.8-1.6,4.9
		c0,2.1,0.6,3.7,1.7,4.9c1.1,1.2,2.6,1.8,4.4,1.8c0.8,0,1.8-0.2,2.9-0.8c1-0.5,1.6-0.8,1.5-0.8c0.3,0,0.7,1.4,1.3,4.4
		c0.5,2.6,0.7,4.4,0.7,5.2s-1.2,1.6-3.6,2.2c-1.9,0.5-3.4,0.7-4.5,0.7c-4.3,0-7.8-1.7-10.6-5c-2.8-3.4-4.1-7.6-4.1-12.6
		c0-5,1.4-9.1,4.1-12.5c2.8-3.4,6.3-5.1,10.6-5.1c2.9,0,5.5,0.7,7.6,2.2c0.5,0.4,0.8,0.7,0.8,1c0,0.3-0.3,1.6-0.9,4
		c-0.5,2.3-0.9,3.7-1.1,4.1C254.8,219,254.7,219.2,254.5,219.2L254.5,219.2z"/>
	<path class="st0" d="M277.2,207.4c0,0.4,0,0.8-0.1,1.6c-0.1,0.7-0.1,1.2-0.1,1.6c0,0.3,0,0.9,0,1.7c0,0.7-0.1,1.3-0.1,1.7
		c0,0.4-0.2,0.5-0.6,0.5c-0.2,0-0.7-0.1-1.8-0.4c-1.1-0.3-3.2-0.4-6.4-0.4c-1,0-2.4,0.1-4.4,0.1c-1.9,0.2-3.4,0.2-4.3,0.2
		c-0.3,0-0.5-0.2-0.5-0.5c0-0.5-0.1-1.3-0.3-2.3c-0.3-1.5-0.4-2.3-0.4-2.6c0-0.3,0.5-0.5,1.6-0.7c1.3-0.2,2-0.5,2.4-0.8
		c1.3-1.3,2.6-2.9,3.9-4.8c1.7-2.4,2.5-4.2,2.5-5.4c0-1.1-0.3-2-1-2.6c-0.7-0.7-1.4-1.1-2.3-1.1c-1,0-2,0.2-3,0.7
		c-0.7,0.3-1.4,0.7-2.1,1.3c-0.7,0.4-1,0.7-1,0.7c-0.5,0-0.7-0.6-0.7-1.7c0-1-0.1-1.6-0.1-2c0-0.2-0.1-0.5-0.2-1.1
		c-0.2-0.5-0.2-0.9-0.2-1.2c0-0.2,0.1-0.4,0.3-0.5c1.1-0.8,2.5-1.6,4.2-2c1.6-0.5,3.1-0.7,4.6-0.7c2.4,0,4.4,0.6,6,1.9
		c1.9,1.4,2.9,3.5,2.9,6.2c0,3.5-2.3,7.7-6.9,12.4c3.2-0.2,5.8-0.2,7.7-0.2C277,206.6,277.2,206.9,277.2,207.4L277.2,207.4z"/>
	<path class="st3" d="M188.1,332.2c34.6,8.2,61.4-9,71.2-35.9"/>
</g>
</svg>
